<svg width="36" height="36" viewBox="0 0 36 36" fill="none" xmlns="http://www.w3.org/2000/svg">
<path d="M17.8811 1.93214C13.4788 1.93214 9.49207 3.71778 6.60559 6.60645C3.71801 9.48854 1.93348 13.4775 1.93348 17.882C1.93348 22.2831 3.71801 26.2693 6.60559 29.1525C9.49207 32.0374 13.4788 33.8263 17.8811 33.8263C22.2845 33.8263 26.2734 32.0374 29.1555 29.1525C32.042 26.2693 33.8227 22.2831 33.8227 17.882C33.8227 13.4775 32.042 9.48854 29.1555 6.60645C26.2734 3.71778 22.2845 1.93214 17.8811 1.93214ZM17.8811 -0.000236511C27.7546 -0.000236511 35.76 8.00628 35.76 17.882C35.76 27.7544 27.7546 35.7598 17.8811 35.7598C8.00871 35.7598 0 27.7544 0 17.882C0 8.00628 8.00871 -0.000236511 17.8811 -0.000236511Z" fill="#98A4AE"/>
<path d="M9.42495 17.7365C9.42495 16.6944 8.73356 16.1025 7.75473 16.1025H7.15567V19.3715H7.73769C8.64782 19.3715 9.42495 18.8769 9.42495 17.7365ZM20.0811 18.9126L15.6678 22.3877L11.6343 19.2121C11.0523 20.6103 9.64589 21.5814 8.02623 21.5814H4.57422V13.8915H8.02623C9.83605 13.8915 11.1402 15.0423 11.6332 16.2685L15.6678 13.0962L17.1622 14.2724L13.4645 17.1786L14.1751 17.7348L17.8717 14.8302L19.3682 16.003L15.6711 18.9126L16.3806 19.4699L20.0811 16.5598V13.8915H22.7636V19.3369H25.4396V21.5908H20.0811V18.9126ZM28.8378 19.338H31.5127V21.5908H26.1525V13.8915H28.8378V19.338Z" fill="#98A4AE"/>
</svg>
