<svg width="1728" height="1120" viewBox="0 0 1728 1120" fill="none" xmlns="http://www.w3.org/2000/svg">
<path d="M1728 567.957C1079.3 941.541 469.748 953.994 0 927.172V0H1728V567.957Z" fill="#F4F7FB"/>
<g opacity="0.6">
<path d="M1375 392C1375 385.373 1380.37 380 1387 380H1443C1449.63 380 1455 385.373 1455 392V448C1455 454.627 1449.63 460 1443 460H1387C1380.37 460 1375 454.627 1375 448V392Z" fill="#E6E9FC" fill-opacity="0.6"/>
<g opacity="0.4">
<path d="M1438.36 410.561L1414.99 402.766C1411.68 401.661 1408.75 401.411 1406.03 402.004C1403.26 402.607 1400.76 404.07 1398.39 406.476C1396.53 408.363 1393.11 412.358 1391.06 417.907C1390.92 418.28 1391.03 418.699 1391.34 418.953C1391.64 419.207 1392.08 419.24 1392.42 419.036C1394.96 417.518 1399.94 414.802 1403.25 413.546C1408.12 411.691 1411.84 412.383 1417.01 414.308L1437.74 422.031C1437.84 422.07 1437.95 422.09 1438.06 422.09C1438.25 422.09 1438.44 422.033 1438.6 421.922C1438.85 421.747 1439 421.459 1439 421.152V411.45C1439 411.046 1438.74 410.688 1438.36 410.561ZM1437.12 419.802L1417.66 412.551C1414.44 411.349 1411.65 410.585 1408.79 410.585C1406.8 410.585 1404.79 410.952 1402.58 411.793C1400.05 412.757 1396.58 414.537 1393.9 416.026C1395.8 412.116 1398.27 409.27 1399.73 407.792C1403.9 403.555 1408.43 402.553 1414.4 404.545L1437.12 412.125V419.802Z" fill="#635BFF"/>
<path d="M1437.42 424.052C1433.02 428.231 1423.59 431.264 1415 431.264C1406.41 431.264 1396.98 428.231 1392.58 424.053C1392.21 423.696 1391.61 423.711 1391.26 424.086C1390.9 424.461 1390.92 425.055 1391.29 425.411C1392.56 426.615 1394.17 427.722 1396.03 428.7C1395.18 430.085 1394.06 430.91 1392.63 431.207C1392.13 431.312 1391.8 431.809 1391.91 432.316C1392 432.758 1392.39 433.063 1392.82 433.063C1392.89 433.063 1392.95 433.056 1393.02 433.043C1395.01 432.628 1396.59 431.446 1397.72 429.525C1399.4 430.284 1401.24 430.944 1403.16 431.485C1402.43 432.857 1401.41 433.725 1400.05 434.122C1399.55 434.267 1399.26 434.788 1399.41 435.284C1399.53 435.694 1399.9 435.959 1400.31 435.959C1400.39 435.959 1400.48 435.947 1400.57 435.922C1402.56 435.342 1404.05 434.011 1405.02 431.963C1406.65 432.346 1408.34 432.642 1410.03 432.842C1409.87 434.488 1409.21 435.731 1408.03 436.623C1407.62 436.935 1407.54 437.523 1407.85 437.936C1408.03 438.18 1408.31 438.308 1408.6 438.308C1408.79 438.308 1408.99 438.247 1409.16 438.119C1410.77 436.906 1411.69 435.194 1411.9 433.022C1412.94 433.1 1413.97 433.14 1415 433.14C1416.03 433.14 1417.06 433.1 1418.1 433.022C1418.31 435.195 1419.23 436.907 1420.84 438.119C1421.01 438.247 1421.21 438.308 1421.4 438.308C1421.69 438.308 1421.97 438.18 1422.15 437.936C1422.46 437.522 1422.38 436.934 1421.97 436.622C1420.79 435.731 1420.13 434.488 1419.96 432.842C1421.66 432.642 1423.35 432.345 1424.98 431.962C1425.95 434.012 1427.45 435.343 1429.43 435.922C1429.52 435.947 1429.6 435.959 1429.69 435.959C1430.1 435.959 1430.47 435.694 1430.59 435.284C1430.74 434.788 1430.45 434.267 1429.95 434.122C1428.6 433.725 1427.57 432.858 1426.84 431.484C1428.76 430.943 1430.6 430.284 1432.28 429.524C1433.41 431.446 1434.99 432.628 1436.98 433.043C1437.05 433.056 1437.11 433.063 1437.18 433.063C1437.61 433.063 1438 432.758 1438.09 432.316C1438.2 431.809 1437.87 431.312 1437.37 431.207C1435.94 430.91 1434.82 430.085 1433.97 428.699C1435.83 427.721 1437.44 426.614 1438.71 425.412C1439.08 425.055 1439.1 424.462 1438.74 424.086C1438.39 423.711 1437.79 423.696 1437.42 424.052Z" fill="#635BFF"/>
</g>
</g>
<g opacity="0.6">
<path d="M1497 500C1497 493.373 1502.37 488 1509 488H1565C1571.63 488 1577 493.373 1577 500V556C1577 562.627 1571.63 568 1565 568H1509C1502.37 568 1497 562.627 1497 556V500Z" fill="#E6E9FC" fill-opacity="0.6"/>
<g opacity="0.4">
<path d="M1531.39 547.194H1525.2V552" stroke="#635BFF" stroke-width="1.95121" stroke-miterlimit="10" stroke-linecap="round" stroke-linejoin="round"/>
<path d="M1531.39 552H1557.97V537.758C1557.97 536.524 1556.96 535.518 1555.73 535.518H1533.63C1532.4 535.518 1531.39 536.524 1531.39 537.758V552H1531.39Z" stroke="#635BFF" stroke-width="1.95121" stroke-miterlimit="10" stroke-linecap="round" stroke-linejoin="round"/>
<path d="M1531.39 542.39H1519.01" stroke="#635BFF" stroke-width="1.95121" stroke-miterlimit="10" stroke-linecap="round" stroke-linejoin="round"/>
<path d="M1555.22 535.518V530.999H1534.14V535.518" stroke="#635BFF" stroke-width="1.95121" stroke-miterlimit="10" stroke-linecap="round" stroke-linejoin="round"/>
<path d="M1553.04 530.999C1554.42 529.567 1555.34 526.923 1554.03 523.817C1551.48 526.503 1550.14 526.92 1547.65 526.92H1538.66C1536.02 526.92 1535.23 528.98 1535.74 530.999" stroke="#635BFF" stroke-width="1.95121" stroke-miterlimit="10" stroke-linecap="round" stroke-linejoin="round"/>
<path d="M1531.39 552H1520.75C1519.79 552 1519.01 551.22 1519.01 550.269V542.39L1516.03 508.629V505.692C1516.03 504.763 1516.79 504 1517.72 504H1538.86C1539.8 504 1540.56 504.763 1540.56 505.692V508.629L1538.94 526.92" stroke="#635BFF" stroke-width="1.95121" stroke-miterlimit="10" stroke-linecap="round" stroke-linejoin="round"/>
<path d="M1544.68 546.721C1547.69 546.721 1550.15 545.388 1550.15 543.759C1550.15 542.127 1547.69 540.797 1544.68 540.797C1541.67 540.797 1539.21 542.127 1539.21 543.759C1539.21 545.388 1541.67 546.721 1544.68 546.721Z" stroke="#635BFF" stroke-width="1.95121" stroke-miterlimit="10" stroke-linecap="round" stroke-linejoin="round"/>
<path d="M1533.27 517.802H1523.32V523.518H1533.27V517.802Z" stroke="#635BFF" stroke-width="1.95121" stroke-miterlimit="10" stroke-linecap="round" stroke-linejoin="round"/>
<path d="M1516.03 508.629H1540.56" stroke="#635BFF" stroke-width="1.95121" stroke-miterlimit="10" stroke-linecap="round" stroke-linejoin="round"/>
</g>
</g>
<g opacity="0.6">
<path d="M1375 176C1375 169.373 1380.37 164 1387 164H1443C1449.63 164 1455 169.373 1455 176V232C1455 238.627 1449.63 244 1443 244H1387C1380.37 244 1375 238.627 1375 232V176Z" fill="#E6E9FC" fill-opacity="0.6"/>
<g opacity="0.4">
<path d="M1433.32 224.571H1417.25C1414.11 224.571 1411.57 222.029 1411.57 218.893V218.694H1439V218.893C1439 222.029 1436.46 224.571 1433.32 224.571Z" stroke="#635BFF" stroke-width="1.95123" stroke-miterlimit="10" stroke-linecap="round" stroke-linejoin="round"/>
<path d="M1415.1 218.694C1414.1 216.966 1413.53 214.958 1413.53 212.816C1413.53 206.325 1418.79 201.061 1425.28 201.061C1431.78 201.061 1437.04 206.325 1437.04 212.816C1437.04 214.958 1436.47 216.966 1435.47 218.694" stroke="#635BFF" stroke-width="1.95123" stroke-miterlimit="10" stroke-linecap="round" stroke-linejoin="round"/>
<path d="M1420.66 218.694C1418.92 217.325 1417.8 215.202 1417.8 212.816C1417.8 208.685 1421.15 205.336 1425.29 205.336C1429.42 205.336 1432.77 208.685 1432.77 212.816C1432.77 215.202 1431.65 217.325 1429.91 218.694" stroke="#635BFF" stroke-width="1.95123" stroke-miterlimit="10" stroke-linecap="round" stroke-linejoin="round"/>
<path d="M1402.76 224.571H1393.94C1392.32 224.571 1391 223.256 1391 221.633V204.979H1405.69V221.633C1405.69 223.256 1404.38 224.571 1402.76 224.571Z" stroke="#635BFF" stroke-width="1.95123" stroke-miterlimit="10" stroke-linecap="round" stroke-linejoin="round"/>
<path d="M1403.73 200.082H1392.96V204.98H1403.73V200.082Z" stroke="#635BFF" stroke-width="1.95123" stroke-miterlimit="10" stroke-linecap="round" stroke-linejoin="round"/>
<path d="M1401.78 200.082H1394.92V183.428L1401.78 188.326V200.082Z" stroke="#635BFF" stroke-width="1.95123" stroke-miterlimit="10" stroke-linecap="round" stroke-linejoin="round"/>
<path d="M1419 224.571H1408.63C1407.01 224.571 1405.69 223.256 1405.69 221.633V204.979H1407.65H1416.52" stroke="#635BFF" stroke-width="1.95123" stroke-miterlimit="10" stroke-linecap="round" stroke-linejoin="round"/>
<path d="M1418.43 203.268V200.082H1407.65V204.98H1416.52" stroke="#635BFF" stroke-width="1.95123" stroke-miterlimit="10" stroke-linecap="round" stroke-linejoin="round"/>
<path d="M1413.04 200.082V183.428" stroke="#635BFF" stroke-width="1.95123" stroke-miterlimit="10" stroke-linecap="round" stroke-linejoin="round"/>
<path d="M1410.59 185.388H1415.49" stroke="#635BFF" stroke-width="1.95123" stroke-miterlimit="10" stroke-linecap="round" stroke-linejoin="round"/>
<path d="M1410.59 189.306H1415.49" stroke="#635BFF" stroke-width="1.95123" stroke-miterlimit="10" stroke-linecap="round" stroke-linejoin="round"/>
<path d="M1410.59 193.225H1415.49" stroke="#635BFF" stroke-width="1.95123" stroke-miterlimit="10" stroke-linecap="round" stroke-linejoin="round"/>
<path d="M1391 209.878H1405.69" stroke="#635BFF" stroke-width="1.95123" stroke-miterlimit="10" stroke-linecap="round" stroke-linejoin="round"/>
<path d="M1413.9 209.878H1405.69" stroke="#635BFF" stroke-width="1.95123" stroke-miterlimit="10" stroke-linecap="round" stroke-linejoin="round"/>
</g>
</g>
<g opacity="0.6">
<path d="M151 284C151 277.373 156.373 272 163 272H219C225.627 272 231 277.373 231 284V340C231 346.627 225.627 352 219 352H163C156.373 352 151 346.627 151 340V284Z" fill="#E6E9FC" fill-opacity="0.6"/>
<g opacity="0.4">
<path d="M190.174 306.092L202.064 290.123C203.698 287.929 206.74 287.35 209.065 288.791L200.16 301.789" stroke="#635BFF" stroke-width="2.1875" stroke-miterlimit="10" stroke-linecap="round" stroke-linejoin="round"/>
<path d="M187.303 312.368L184.296 316.757C183.365 318.116 182.089 319.192 180.625 319.948C180.016 320.263 179.448 320.68 178.946 321.199C176.68 323.541 176.534 327.164 178.467 329.673C178.657 329.92 178.867 330.155 179.098 330.378C180.344 331.584 181.985 332.232 183.719 332.203C185.453 332.175 187.072 331.472 188.277 330.226C190.766 327.653 190.698 323.535 188.125 321.047L188.118 321.04C187.72 320.656 187.657 320.04 187.97 319.583L193.88 310.958M178.904 330.281C177.043 331.547 175.946 333.722 176.068 336M185.304 323.963C185.391 324.046 185.47 324.135 185.541 324.227C186.266 325.168 186.211 326.527 185.361 327.406C184.909 327.873 184.302 328.137 183.652 328.147C183.001 328.158 182.386 327.915 181.918 327.463C180.954 326.529 180.928 324.985 181.861 324.02C182.795 323.055 184.339 323.029 185.304 323.963Z" stroke="#635BFF" stroke-width="2.1875" stroke-miterlimit="10" stroke-linecap="round" stroke-linejoin="round"/>
<ellipse cx="192.08" cy="308.446" rx="0.975597" ry="0.975609" fill="#635BFF"/>
<path d="M185.651 308.578L191.276 312.077L211.994 302.216C214.464 301.041 215.624 298.17 214.663 295.608L184.562 308.507" stroke="#635BFF" stroke-width="2.1875" stroke-miterlimit="10" stroke-linecap="round" stroke-linejoin="round"/>
<path d="M187.656 307.18L180.354 310.309C179.846 310.527 179.254 310.346 178.954 309.881L178.949 309.873C177.009 306.865 172.982 305.997 169.975 307.937C168.518 308.877 167.514 310.328 167.148 312.023C166.783 313.718 167.099 315.454 168.039 316.911C168.213 317.181 168.403 317.433 168.609 317.668C170.693 320.052 174.275 320.614 177.013 318.847C177.62 318.455 178.14 317.979 178.567 317.443C179.594 316.154 180.897 315.112 182.412 314.463L189.885 311.261M174.814 315.438C173.686 316.166 172.176 315.84 171.448 314.712C171.095 314.166 170.977 313.515 171.114 312.879C171.251 312.243 171.627 311.699 172.174 311.346C173.201 310.683 174.545 310.894 175.327 311.788C175.404 311.876 175.475 311.971 175.54 312.072C176.268 313.2 175.942 314.71 174.814 315.438Z" stroke="#635BFF" stroke-width="2.1875" stroke-miterlimit="10" stroke-linecap="round" stroke-linejoin="round"/>
</g>
</g>
<g opacity="0.6">
<path d="M151 500C151 493.373 156.373 488 163 488H219C225.627 488 231 493.373 231 500V556C231 562.627 225.627 568 219 568H163C156.373 568 151 562.627 151 556V500Z" fill="#E6E9FC" fill-opacity="0.6"/>
<g opacity="0.4">
<mask id="path-37-inside-1_11113_51193" fill="white">
<path d="M182.023 504H180.072V528.976H182.023V504Z"/>
</mask>
<path d="M180.072 504V502.049H178.121V504H180.072ZM182.023 504H183.974V502.049H182.023V504ZM182.023 528.976V530.927H183.974V528.976H182.023ZM180.072 528.976H178.121V530.927H180.072V528.976ZM180.072 504V505.951H182.023V504V502.049H180.072V504ZM182.023 504H180.072V528.976H182.023H183.974V504H182.023ZM182.023 528.976V527.024H180.072V528.976V530.927H182.023V528.976ZM180.072 528.976H182.023V504H180.072H178.121V528.976H180.072Z" fill="#635BFF" mask="url(#path-37-inside-1_11113_51193)"/>
<path d="M209.498 518.37C210.537 518.37 211.38 517.527 211.38 516.487C211.38 515.448 210.537 514.605 209.498 514.605C208.458 514.605 207.615 515.448 207.615 516.487C207.615 517.527 208.458 518.37 209.498 518.37Z" fill="#635BFF"/>
<path d="M177.425 536.39C176.347 536.39 175.474 537.264 175.474 538.341C175.474 539.419 176.347 540.293 177.425 540.293H190.635L191.907 548.402C192.232 550.473 194.016 552 196.113 552H208.908C211.004 552 212.789 550.473 213.114 548.402L214.998 536.39H177.425Z" stroke="#635BFF" stroke-width="1.95122" stroke-miterlimit="10" stroke-linecap="round" stroke-linejoin="round"/>
<path d="M214.916 536.39C213.293 536.39 211.977 535.074 211.977 533.451C211.977 532.713 212.249 532.039 212.697 531.523C213.21 530.927 213.52 530.151 213.52 529.303C213.52 528.174 212.97 527.173 212.124 526.554C212.116 529.027 210.108 531.03 207.633 531.03H199.158C196.216 531.03 193.827 533.4 193.798 536.335" stroke="#635BFF" stroke-width="1.95122" stroke-miterlimit="10" stroke-linecap="round" stroke-linejoin="round"/>
<path d="M167 526.244H176.49" stroke="#635BFF" stroke-width="1.95122" stroke-miterlimit="10" stroke-linecap="round" stroke-linejoin="round"/>
<path d="M167 522.341H176.49" stroke="#635BFF" stroke-width="1.95122" stroke-miterlimit="10" stroke-linecap="round" stroke-linejoin="round"/>
<path d="M167 518.439H176.49" stroke="#635BFF" stroke-width="1.95122" stroke-miterlimit="10" stroke-linecap="round" stroke-linejoin="round"/>
<path d="M167 514.536H176.49" stroke="#635BFF" stroke-width="1.95122" stroke-miterlimit="10" stroke-linecap="round" stroke-linejoin="round"/>
<path d="M167 510.634H176.49" stroke="#635BFF" stroke-width="1.95122" stroke-miterlimit="10" stroke-linecap="round" stroke-linejoin="round"/>
<path d="M167 506.731H176.49" stroke="#635BFF" stroke-width="1.95122" stroke-miterlimit="10" stroke-linecap="round" stroke-linejoin="round"/>
<path d="M186.159 526.159V523.443C186.159 521.2 187.977 519.382 190.22 519.382H202.937C203.977 519.382 204.974 519.785 205.732 520.497C206.759 521.463 208.157 522.038 209.69 521.987C212.603 521.888 214.957 519.486 215 516.572C215.046 513.494 212.565 510.985 209.499 510.985C208.027 510.985 206.69 511.564 205.703 512.505C204.96 513.214 203.964 513.593 202.937 513.593H190.22C187.977 513.593 186.159 511.775 186.159 509.532V506.816C186.159 505.261 184.898 504 183.342 504H176.491V528.975H183.342C184.898 528.975 186.159 527.714 186.159 526.159Z" stroke="#635BFF" stroke-width="1.95122" stroke-miterlimit="10" stroke-linecap="round" stroke-linejoin="round"/>
</g>
</g>
<g opacity="0.6">
<path d="M273 176C273 169.373 278.373 164 285 164H341C347.627 164 353 169.373 353 176V232C353 238.627 347.627 244 341 244H285C278.373 244 273 238.627 273 232V176Z" fill="#E6E9FC" fill-opacity="0.6"/>
<g opacity="0.4">
<path d="M297.807 201.596C298.208 199.327 296.693 197.161 294.423 196.76C292.154 196.358 289.988 197.873 289.587 200.143C289.185 202.413 290.7 204.579 292.97 204.98C295.24 205.381 297.406 203.866 297.807 201.596Z" stroke="#635BFF" stroke-width="2.07848" stroke-miterlimit="10" stroke-linecap="round" stroke-linejoin="round"/>
<path d="M303.087 205.043H312.478V200.869H303.087" stroke="#635BFF" stroke-width="2.07848" stroke-miterlimit="10" stroke-linecap="round" stroke-linejoin="round"/>
<path d="M326.042 199.826L319.781 196.696H302.042C299.737 196.696 297.868 198.564 297.868 200.869C297.868 203.175 299.737 205.043 302.042 205.043C303.785 205.043 334.588 205.043 336.477 205.043V199.826H326.042Z" stroke="#635BFF" stroke-width="2.07848" stroke-miterlimit="10" stroke-linecap="round" stroke-linejoin="round"/>
<path d="M287.435 207.134C287.435 208.29 288.371 209.226 289.526 209.226H336.475C337.63 209.226 338.566 208.29 338.566 207.135C338.566 205.98 337.63 205.043 336.475 205.043H289.526C288.371 205.043 287.435 205.98 287.435 207.134Z" stroke="#635BFF" stroke-width="2.07848" stroke-miterlimit="10" stroke-linecap="round" stroke-linejoin="round"/>
<path d="M332.323 213.4H328.132C326.984 213.4 326.054 212.469 326.054 211.321V209.226H334.402V211.321C334.402 212.469 333.471 213.4 332.323 213.4Z" stroke="#635BFF" stroke-width="2.07848" stroke-miterlimit="10" stroke-linecap="round" stroke-linejoin="round"/>
<path d="M297.869 213.4H293.678C292.53 213.4 291.599 212.469 291.599 211.321V209.226H299.947V211.321C299.947 212.469 299.017 213.4 297.869 213.4Z" stroke="#635BFF" stroke-width="2.07848" stroke-miterlimit="10" stroke-linecap="round" stroke-linejoin="round"/>
<path d="M295.776 228C294.623 228 293.689 227.065 293.689 225.913V213.4H297.863V225.913C297.863 227.065 296.929 228 295.776 228Z" stroke="#635BFF" stroke-width="2.07848" stroke-miterlimit="10" stroke-linecap="round" stroke-linejoin="round"/>
<path d="M330.227 228C329.074 228 328.14 227.065 328.14 225.913V213.4H332.314V225.913C332.314 227.065 331.379 228 330.227 228Z" stroke="#635BFF" stroke-width="2.07848" stroke-miterlimit="10" stroke-linecap="round" stroke-linejoin="round"/>
<path d="M307.262 194.609C307.262 195.761 305.86 196.696 304.131 196.696C302.402 196.696 301.001 195.761 301.001 194.609C301.001 193.456 302.402 192.522 304.131 192.522C305.86 192.522 307.262 193.456 307.262 194.609Z" stroke="#635BFF" stroke-width="2.07848" stroke-miterlimit="10" stroke-linecap="round" stroke-linejoin="round"/>
<path d="M313.523 194.609C313.523 195.761 312.122 196.696 310.393 196.696C308.664 196.696 307.262 195.761 307.262 194.609C307.262 193.456 308.664 192.522 310.393 192.522C312.122 192.522 313.523 193.456 313.523 194.609Z" stroke="#635BFF" stroke-width="2.07848" stroke-miterlimit="10" stroke-linecap="round" stroke-linejoin="round"/>
<path d="M319.784 194.609C319.784 195.761 318.383 196.696 316.654 196.696C314.925 196.696 313.524 195.761 313.524 194.609C313.524 193.456 314.925 192.522 316.654 192.522C318.383 192.522 319.784 193.456 319.784 194.609Z" stroke="#635BFF" stroke-width="2.07848" stroke-miterlimit="10" stroke-linecap="round" stroke-linejoin="round"/>
<path d="M316.653 188.348C316.653 186.261 315.609 186.261 315.609 184.174C315.609 182.087 316.653 182.087 316.653 180" stroke="#635BFF" stroke-width="2.07848" stroke-miterlimit="10" stroke-linecap="round" stroke-linejoin="round"/>
<path d="M310.392 188.348C310.392 186.261 309.348 186.261 309.348 184.174C309.348 182.087 310.392 182.087 310.392 180" stroke="#635BFF" stroke-width="2.07848" stroke-miterlimit="10" stroke-linecap="round" stroke-linejoin="round"/>
<path d="M304.13 188.348C304.13 186.261 303.087 186.261 303.087 184.174C303.087 182.087 304.13 182.087 304.13 180" stroke="#635BFF" stroke-width="2.07848" stroke-miterlimit="10" stroke-linecap="round" stroke-linejoin="round"/>
<path d="M316.652 205.043V196.696" stroke="#635BFF" stroke-width="2.07848" stroke-miterlimit="10" stroke-linecap="round" stroke-linejoin="round"/>
</g>
<path d="M273 392C273 385.373 278.373 380 285 380H341C347.627 380 353 385.373 353 392V448C353 454.627 347.627 460 341 460H285C278.373 460 273 454.627 273 448V392Z" fill="#E6E9FC" fill-opacity="0.6"/>
<g opacity="0.4">
<mask id="mask0_11113_51193" style="mask-type:luminance" maskUnits="userSpaceOnUse" x="289" y="396" width="48" height="48">
<path d="M289 396H337V444H289V396Z" fill="white"/>
</mask>
<g mask="url(#mask0_11113_51193)">
<path d="M308.247 423.422V437.249C308.247 440.439 305.66 443.026 302.47 443.026C299.279 443.026 296.693 440.439 296.693 437.249V422.331" stroke="#635BFF" stroke-width="2.1875" stroke-miterlimit="10" stroke-linecap="round" stroke-linejoin="round"/>
<path d="M308.339 425.581H311.088C311.589 425.581 311.995 425.987 311.995 426.488V429.549C311.995 430.05 311.589 430.456 311.088 430.456H308.339" stroke="#635BFF" stroke-width="2.1875" stroke-miterlimit="10" stroke-linecap="round" stroke-linejoin="round"/>
<path d="M308.339 430.456H311.088C311.589 430.456 311.995 430.862 311.995 431.363V434.424C311.995 434.925 311.589 435.331 311.088 435.331H308.339" stroke="#635BFF" stroke-width="2.1875" stroke-miterlimit="10" stroke-linecap="round" stroke-linejoin="round"/>
<path d="M330.848 410.423V402.88L306.036 397.236C305.179 397.065 304.293 396.975 303.385 396.975C295.958 396.975 289.938 402.995 289.938 410.423" stroke="#635BFF" stroke-width="2.1875" stroke-miterlimit="10" stroke-linecap="round" stroke-linejoin="round"/>
<path d="M330.848 410.423V417.965L306.036 423.609C305.179 423.781 304.293 423.871 303.385 423.871C295.958 423.871 289.938 417.85 289.938 410.423" stroke="#635BFF" stroke-width="2.1875" stroke-miterlimit="10" stroke-linecap="round" stroke-linejoin="round"/>
<path d="M312.178 410.422C312.178 405.647 308.307 401.776 303.532 401.776C298.757 401.776 294.886 405.647 294.886 410.422C294.886 415.198 298.757 419.069 303.532 419.069C308.307 419.069 312.178 415.198 312.178 410.422Z" stroke="#635BFF" stroke-width="2.1875" stroke-miterlimit="10" stroke-linecap="round" stroke-linejoin="round"/>
<path d="M330.851 417.965L333.607 421.117C334.46 422.093 336.065 421.49 336.065 420.194V410.423V400.651C336.065 399.356 334.46 398.753 333.607 399.728L330.851 402.88" stroke="#635BFF" stroke-width="2.1875" stroke-miterlimit="10" stroke-linecap="round" stroke-linejoin="round"/>
<path d="M300.036 410.423H307.033" stroke="#635BFF" stroke-width="2.1875" stroke-miterlimit="10" stroke-linecap="round" stroke-linejoin="round"/>
<path d="M302.04 406.673H305.024" stroke="#635BFF" stroke-width="2.1875" stroke-miterlimit="10" stroke-linecap="round" stroke-linejoin="round"/>
<path d="M302.04 414.173H305.024" stroke="#635BFF" stroke-width="2.1875" stroke-miterlimit="10" stroke-linecap="round" stroke-linejoin="round"/>
</g>
</g>
</g>
<g opacity="0.6">
<path d="M1497 283C1497 276.373 1502.37 271 1509 271H1565C1571.63 271 1577 276.373 1577 283V339C1577 345.627 1571.63 351 1565 351H1509C1502.37 351 1497 345.627 1497 339V283Z" fill="#E6E9FC" fill-opacity="0.6"/>
<g opacity="0.4">
<path d="M1534.23 323.259H1530.4C1525.23 323.259 1521.04 327.442 1521.04 332.601V335H1552.99V332.601C1552.99 327.442 1548.8 323.259 1543.63 323.259H1539.81" stroke="#635BFF" stroke-width="1.95768" stroke-miterlimit="10" stroke-linecap="round" stroke-linejoin="round"/>
<path d="M1539.71 321.23V323.821C1539.71 325.312 1538.51 326.52 1537.02 326.52C1535.53 326.52 1534.33 325.312 1534.33 323.821V321.23" stroke="#635BFF" stroke-width="1.95768" stroke-miterlimit="10" stroke-linecap="round" stroke-linejoin="round"/>
<path d="M1551.18 307.131C1551.25 306.859 1551.29 306.574 1551.29 306.279C1551.29 304.765 1550.25 303.49 1548.84 303.104" stroke="#635BFF" stroke-width="1.95768" stroke-miterlimit="10" stroke-linecap="round" stroke-linejoin="round"/>
<path d="M1525.48 310.843C1526.02 316.74 1531.05 321.231 1536.98 321.231H1537.06C1542.97 321.231 1547.98 316.768 1548.55 310.898" stroke="#635BFF" stroke-width="1.95768" stroke-miterlimit="10" stroke-linecap="round" stroke-linejoin="round"/>
<path d="M1525.18 303.108C1523.77 303.499 1522.75 304.771 1522.75 306.279C1522.75 306.587 1522.79 306.885 1522.87 307.167" stroke="#635BFF" stroke-width="1.95768" stroke-miterlimit="10" stroke-linecap="round" stroke-linejoin="round"/>
<path d="M1524.8 298.916C1524.89 293.575 1528.68 288.764 1534.14 287.542C1534.81 287.392 1536.5 287.22 1537.31 287.261" stroke="#635BFF" stroke-width="1.95768" stroke-miterlimit="10" stroke-linecap="round" stroke-linejoin="round"/>
<path d="M1537.1 296.375C1535.85 296.498 1534.73 296.643 1533.91 296.815C1531.17 297.393 1528.84 298.906 1527.18 300.913" stroke="#635BFF" stroke-width="1.95768" stroke-miterlimit="10" stroke-linecap="round" stroke-linejoin="round"/>
<path d="M1549.23 298.942C1549.16 293.591 1545.36 288.766 1539.89 287.542C1539.22 287.392 1538.55 287.301 1537.89 287.264C1531.89 286.933 1531.26 295.803 1537.24 296.387C1538.49 296.51 1539.6 296.655 1540.42 296.827C1543.2 297.412 1545.55 298.951 1547.21 300.989" stroke="#635BFF" stroke-width="1.95768" stroke-miterlimit="10" stroke-linecap="round" stroke-linejoin="round"/>
<path d="M1534.09 309.184C1533.21 310.057 1531.77 310.057 1530.89 309.184" stroke="#635BFF" stroke-width="1.95768" stroke-miterlimit="10" stroke-linecap="round" stroke-linejoin="round"/>
<path d="M1543.15 309.184C1542.26 310.057 1540.83 310.057 1539.94 309.184" stroke="#635BFF" stroke-width="1.95768" stroke-miterlimit="10" stroke-linecap="round" stroke-linejoin="round"/>
<path d="M1540.89 304.947C1542.02 303.831 1543.85 303.831 1544.98 304.947" stroke="#635BFF" stroke-width="1.95768" stroke-miterlimit="10" stroke-linecap="round" stroke-linejoin="round"/>
<path d="M1529.05 304.947C1530.18 303.831 1532.02 303.831 1533.15 304.947" stroke="#635BFF" stroke-width="1.95768" stroke-miterlimit="10" stroke-linecap="round" stroke-linejoin="round"/>
<path d="M1539.74 314.785C1538.24 316.266 1535.8 316.266 1534.3 314.785" stroke="#635BFF" stroke-width="1.95768" stroke-miterlimit="10" stroke-linecap="round" stroke-linejoin="round"/>
<path d="M1555.06 287V294.33C1555.06 295.874 1553.82 297.125 1552.28 297.125C1551.56 297.125 1550.86 297.403 1550.35 297.902L1547.5 300.632C1547.09 301.028 1546.95 301.63 1547.14 302.17C1547.41 302.949 1548.28 303.342 1549.04 303.038L1554.92 300.703L1554.76 304.524L1549.28 308.519C1548.48 309.104 1548.2 310.178 1548.63 311.078C1549.18 312.272 1550.7 312.647 1551.75 311.851L1557.52 307.477C1559.76 305.777 1561.08 303.123 1561.08 300.307V287H1555.06Z" stroke="#635BFF" stroke-width="1.95768" stroke-miterlimit="10" stroke-linecap="round" stroke-linejoin="round"/>
<path d="M1518.94 287V294.33C1518.94 295.874 1520.18 297.125 1521.72 297.125C1522.44 297.125 1523.14 297.403 1523.65 297.902L1526.5 300.632C1526.91 301.028 1527.05 301.63 1526.86 302.17C1526.59 302.949 1525.72 303.342 1524.96 303.038L1519.08 300.703L1519.24 304.524L1524.72 308.519C1525.52 309.104 1525.8 310.178 1525.37 311.078C1524.82 312.272 1523.3 312.647 1522.25 311.851L1516.48 307.477C1514.24 305.777 1512.92 303.123 1512.92 300.307V287H1518.94Z" stroke="#635BFF" stroke-width="1.95768" stroke-miterlimit="10" stroke-linecap="round" stroke-linejoin="round"/>
</g>
</g>
</svg>
