<svg width="79" height="31" viewBox="0 0 79 31" fill="none" xmlns="http://www.w3.org/2000/svg">
<path fill-rule="evenodd" clip-rule="evenodd" d="M0.000626222 3.15164L0 3.1138V0.0851707H3.02223V22.2988L3.02348 22.368V25.3652H0V22.3366L0.000626222 22.2988V3.15164Z" fill="#98A4AE"/>
<path fill-rule="evenodd" clip-rule="evenodd" d="M30.7314 16.159C30.809 20.7535 33.6516 24.4279 37.081 24.3663C40.5098 24.3048 43.2261 20.5304 43.1485 15.9358C43.0703 11.3406 40.2277 7.66621 36.7982 7.72841C33.3695 7.78997 30.6531 11.5644 30.7314 16.159ZM55.7549 10.6038C55.8338 10.7789 55.6466 10.3422 55.6466 10.3422L55.7549 10.6038ZM57.8146 29.6252C57.9531 29.388 58.1462 29.025 58.3757 28.5717L57.8146 29.6252ZM57.9922 9.01862C58.0288 9.12058 58.0711 9.22702 58.1186 9.33924L59.1362 11.8459L57.9922 9.01862ZM45.3288 21.6372C47.1968 23.3429 48.8788 24.2246 51.0295 24.2246C53.231 24.2413 55.1881 23.1582 55.1881 21.0735C55.1881 19.3338 53.6548 18.3161 50.9154 17.151C48.594 16.1404 46.8665 15.4318 45.9636 13.9691C46.0739 14.6046 46.1317 15.2612 46.1317 15.9332C46.1317 21.5756 42.0635 26.1503 37.0451 26.1503C32.0267 26.1503 27.9586 21.5756 27.9586 15.9332C27.9586 12.5314 29.4373 9.51815 31.7105 7.66109H25.5616V22.2989L25.5622 22.3573V25.3654H22.8311V22.4554C22.8331 22.4041 22.8337 22.3522 22.8337 22.2989V7.66109H20.4258V5.81877H22.8689C23.1844 2.10207 25.4731 4.57764e-05 28.6415 4.57764e-05C30.6961 4.57764e-05 31.824 0.215511 32.4756 0.518824V3.0383C32.4653 3.22619 32.4653 3.34097 32.4653 3.34097C32.4371 3.33777 32.3698 3.33648 32.3698 3.33648C31.3809 2.41885 30.4056 1.73591 28.1272 1.73848C26.3125 1.73848 25.1121 3.2217 25.5315 5.81877H35.753C36.1756 5.75144 36.6065 5.71617 37.0451 5.71617C40.6855 5.71617 43.8264 8.12342 45.2762 11.6003C45.2628 11.4073 45.2564 11.2059 45.2564 10.9956C45.2564 7.36803 48.7467 5.82518 52.3723 5.83288C52.5108 5.83224 52.6468 5.83287 52.7801 5.83608C54.0562 5.81556 55.8742 6.2343 56.9842 6.52799L59.1362 11.8459L62.2117 19.3921L62.5727 20.6041L62.9748 19.3921L66.864 9.70603C67.5815 7.03907 70.4216 5.88481 73.5586 5.89122C75.1182 5.88417 76.2699 6.07334 77.6511 6.56198V9.49122C75.9505 8.24783 74.7327 7.52514 72.8032 7.52514C71.1071 7.52514 69.0686 8.28054 69.0686 10.7917C69.0359 12.6789 70.1613 13.0239 73.4637 14.6725C76.1781 15.8582 78.6822 17.167 78.697 20.1982C78.697 25.2519 73.7478 26.1272 71.3386 26.1349C69.1878 26.1349 67.2166 25.6007 66.1201 24.6831V21.3467L66.2965 21.4935C68.2529 23.3314 69.9817 24.2836 72.2159 24.2836C74.4179 24.3003 76.3744 23.2166 76.3744 21.1319C76.3744 19.3921 74.8411 18.3745 72.1017 17.2093C69.4835 16.0692 67.7656 15.3138 67.0634 13.4253C65.9957 16.0448 61.0292 28.2126 59.8602 30.8135H57.1823L58.3943 28.537C59.0657 27.2071 60.0423 25.1204 60.9099 23.1242L55.7549 10.6038C55.7203 10.5275 55.6357 10.3351 55.4632 9.94073C55.0675 9.034 54.6994 8.19653 53.5862 7.77459C52.9898 7.57259 52.355 7.46678 51.6169 7.46678C49.9208 7.46678 47.7515 8.22218 47.7515 10.7333C47.7188 12.6205 48.9743 12.9655 52.2774 14.6135C54.9918 15.7998 57.4959 17.1086 57.5107 20.1398C57.5107 25.1935 52.5608 26.0682 50.1517 26.0766C48.2394 26.0766 46.4683 25.654 45.3288 24.9152V21.6372Z" fill="#98A4AE"/>
<path fill-rule="evenodd" clip-rule="evenodd" d="M8.66206 6.0075L8.69541 8.21853L8.69349 8.3673L8.72297 8.36666C8.75823 8.27432 8.80571 8.19609 8.8506 8.13773C9.9606 6.94052 11.3598 5.75099 14.6853 5.75099C17.8685 5.75099 19.9288 8.47183 20.0116 10.1846L20.0148 22.2991V22.3594V25.3656H17.2869V21.7534L17.2862 11.4402C17.2862 9.30481 15.4234 7.76068 13.1431 7.76068C11.2476 7.76068 8.81468 9.47666 8.73388 11.2138V22.3023L8.73518 22.3838V25.3682H6.00598V8.55326L6.00665 6.0075H8.66206Z" fill="#98A4AE"/>
</svg>
