<svg width="139" height="18" viewBox="0 0 139 18" fill="none" xmlns="http://www.w3.org/2000/svg">
<path d="M59.754 11.7122H68.898L64.068 3.91222L55.188 18.0002H51.15L61.95 1.09822C62.1854 0.760951 62.4983 0.485009 62.8623 0.293518C63.2263 0.102027 63.6309 0.000562187 64.0423 -0.00237573C64.4536 -0.00531365 64.8596 0.0903608 65.2263 0.276632C65.593 0.462904 65.9098 0.734348 66.15 1.06822L76.98 18.0002H72.942L71.04 14.8502H61.788L59.772 11.7122M101.73 14.8502V0.168225H98.298V16.2962C98.2974 16.5203 98.3423 16.7423 98.4299 16.9485C98.5176 17.1548 98.6462 17.3411 98.808 17.4962C98.9704 17.6624 99.1646 17.7943 99.379 17.8839C99.5934 17.9736 99.8236 18.0193 100.056 18.0182H115.656L117.69 14.8682H101.712M44.988 12.2282C46.5873 12.2282 48.121 11.5929 49.2519 10.4621C50.3827 9.33123 51.018 7.79748 51.018 6.19822C51.018 4.59897 50.3827 3.06521 49.2519 1.93437C48.121 0.803526 46.5873 0.168225 44.988 0.168225H29.988V18.0002H33.414V3.32422H44.778C45.5434 3.32422 46.2775 3.62828 46.8187 4.16951C47.36 4.71074 47.664 5.44481 47.664 6.21022C47.664 6.97564 47.36 7.7097 46.8187 8.25093C46.2775 8.79216 45.5434 9.09622 44.778 9.09622H35.112L45.348 18.0002H50.322L43.446 12.2282H44.988ZM8.91601 18.0002H19.278C21.6019 17.9399 23.8103 16.9744 25.4325 15.3095C27.0548 13.6445 27.9627 11.4118 27.9627 9.08722C27.9627 6.7626 27.0548 4.5299 25.4325 2.86496C23.8103 1.20003 21.6019 0.234523 19.278 0.174225H8.91601C7.72608 0.143349 6.54201 0.351054 5.43364 0.785092C4.32526 1.21913 3.31502 1.87071 2.46248 2.70142C1.60994 3.53212 0.932372 4.52512 0.469729 5.62187C0.00708701 6.71861 -0.231262 7.89689 -0.231262 9.08722C-0.231262 10.2776 0.00708701 11.4558 0.469729 12.5526C0.932372 13.6493 1.60994 14.6423 2.46248 15.473C3.31502 16.3037 4.32526 16.9553 5.43364 17.3894C6.54201 17.8234 7.72608 18.0311 8.91601 18.0002ZM19.044 14.8622H9.14401C7.64618 14.8139 6.22586 14.1849 5.1834 13.1083C4.14094 12.0317 3.55808 10.5918 3.55808 9.09322C3.55808 7.59461 4.14094 6.15475 5.1834 5.07813C6.22586 4.00151 7.64618 3.37254 9.14401 3.32422H19.044C19.8173 3.29928 20.5876 3.43005 21.3093 3.70874C22.0311 3.98744 22.6894 4.40837 23.2452 4.94654C23.801 5.4847 24.2429 6.12911 24.5447 6.84146C24.8466 7.55381 25.0021 8.31957 25.0021 9.09322C25.0021 9.86688 24.8466 10.6326 24.5447 11.345C24.2429 12.0573 23.801 12.7017 23.2452 13.2399C22.6894 13.7781 22.0311 14.199 21.3093 14.4777C20.5876 14.7564 19.8173 14.8872 19.044 14.8622ZM84.138 18.0002H94.716L96.72 14.8622H84.372C83.5988 14.8872 82.8284 14.7564 82.1067 14.4777C81.385 14.199 80.7266 13.7781 80.1708 13.2399C79.615 12.7017 79.1731 12.0573 78.8713 11.345C78.5695 10.6326 78.4139 9.86688 78.4139 9.09322C78.4139 8.31957 78.5695 7.55381 78.8713 6.84146C79.1731 6.12911 79.615 5.4847 80.1708 4.94654C80.7266 4.40837 81.385 3.98744 82.1067 3.70874C82.8284 3.43005 83.5988 3.29928 84.372 3.32422H94.422L96.45 0.174225H84.138C82.9481 0.143349 81.764 0.351054 80.6556 0.785092C79.5473 1.21913 78.537 1.87071 77.6845 2.70142C76.8319 3.53212 76.1544 4.52512 75.6917 5.62187C75.2291 6.71861 74.9907 7.89689 74.9907 9.08722C74.9907 10.2776 75.2291 11.4558 75.6917 12.5526C76.1544 13.6493 76.8319 14.6423 77.6845 15.473C78.537 16.3037 79.5473 16.9553 80.6556 17.3894C81.764 17.8234 82.9481 18.0311 84.138 18.0002ZM126.06 14.8622C124.803 14.8627 123.58 14.4527 122.577 13.6947C121.574 12.9366 120.846 11.8718 120.504 10.6622H135.156L137.172 7.51822H120.504C120.846 6.30811 121.573 5.2428 122.576 4.48457C123.579 3.72634 124.803 3.31676 126.06 3.31822H136.116L138.126 0.168225H125.826C123.502 0.228523 121.294 1.19403 119.671 2.85896C118.049 4.5239 117.141 6.7566 117.141 9.08122C117.141 11.4058 118.049 13.6385 119.671 15.3035C121.294 16.9684 123.502 17.9339 125.826 17.9942H136.404L138.414 14.8562H126.054" fill="#98A4AE"/>
</svg>
