<svg width="20" height="20" viewBox="0 0 20 20" fill="none" xmlns="http://www.w3.org/2000/svg">
<path fill-rule="evenodd" clip-rule="evenodd" d="M15.9561 12.3423C17.348 11.4984 17.348 9.50105 15.9561 8.65714L6.33563 2.82277C4.87659 1.93848 3 2.97559 3 4.66631V16.3341C3 18.0248 4.87659 19.0619 6.33563 18.1767L15.9561 12.3423ZM15.192 9.88553C15.2983 9.95002 15.3861 10.0403 15.447 10.1479C15.5079 10.2554 15.5398 10.3765 15.5398 10.4997C15.5398 10.6229 15.5079 10.7441 15.447 10.8516C15.3861 10.9591 15.2983 11.0494 15.192 11.1139L5.57156 16.9473C5.46088 17.0143 5.3341 17.051 5.2043 17.0535C5.0745 17.056 4.94638 17.0243 4.83312 16.9616C4.71987 16.8989 4.62559 16.8076 4.56001 16.6969C4.49442 16.5863 4.4599 16.4604 4.46001 16.3322V4.66727C4.46008 4.53915 4.49472 4.41336 4.56038 4.30286C4.62603 4.19235 4.72033 4.10112 4.83355 4.03856C4.94677 3.976 5.07483 3.94436 5.20455 3.94692C5.33426 3.94947 5.46095 3.98611 5.57156 4.05308L15.192 9.88553Z" fill="#635BFF"/>
</svg>
